<svg xmlns="http://www.w3.org/2000/svg" version="1.0" preserveAspectRatio="xMidYMid meet" viewBox="257.17 88.56 211.59 319.75">
<metadata>
Created by potrace 1.16, written by Peter Selinger 2001-2019
</metadata>
<g transform="translate(0.000000,496.000000) scale(0.100000,-0.100000)" fill="#000000" stroke="none">
<path d="M3488 4063 c-53 -61 -69 -145 -78 -418 -8 -236 -19 -313 -47 -322 -6 -2 -30 32 -54 76 -23 44 -62 100 -86 125 -44 44 -98 75 -110 62 -4 -4 1 -36 10 -72 25 -92 31 -201 19 -339 -11 -117 -53 -316 -90 -424 l-18 -54 -45 88 c-45 90 -128 187 -168 198 -21 5 -21 5 -15 -126 7 -141 -4 -295 -37 -507 -10 -69 -19 -131 -19 -139 0 -8 -16 7 -35 32 -35 46 -122 114 -132 103 -3 -3 0 -35 7 -72 14 -75 8 -243 -11 -309 -16 -56 -4 -292 20 -386 64 -248 171 -419 322 -515 97 -61 295 -93 402 -63 34 9 52 29 26 29 -5 0 -47 24 -92 54 -104 69 -184 161 -242 282 -41 82 -103 274 -119 366 -7 37 -6 38 18 28 14 -5 43 -21 65 -35 22 -14 43 -25 46 -25 3 0 5 19 5 43 0 98 54 336 80 352 10 6 24 -41 35 -115 12 -79 95 -353 122 -402 29 -54 58 -83 92 -93 22 -7 23 -5 18 21 -3 16 -10 47 -16 69 -16 57 -41 241 -41 303 0 58 25 195 42 226 9 17 14 11 35 -45 44 -117 86 -194 142 -258 16 -19 24 -21 35 -12 19 16 81 145 100 211 32 106 43 413 20 560 l-6 35 27 -39 c88 -129 163 -335 173 -473 4 -60 0 -85 -22 -151 -14 -44 -26 -82 -26 -86 0 -30 90 43 149 121 17 23 45 72 62 109 31 67 31 68 44 44 31 -57 27 -196 -10 -337 -16 -62 -11 -64 59 -27 26 14 51 23 54 19 8 -8 -26 -168 -45 -214 -8 -20 -31 -69 -50 -109 -57 -118 -173 -222 -373 -335 -78 -44 -100 -61 -100 -75 0 -23 131 -54 225 -54 316 -1 610 175 747 447 40 79 77 207 84 292 9 107 -22 303 -47 303 -4 0 -19 -30 -33 -67 -14 -38 -37 -81 -51 -97 l-25 -29 0 61 c0 39 9 85 24 129 24 67 49 186 61 293 8 64 -17 269 -42 345 -21 65 -87 198 -107 214 -19 16 -15 23 -46 -104 -22 -87 -50 -158 -69 -169 -13 -8 -27 35 -51 154 -48 234 -93 379 -163 514 -48 95 -129 196 -155 196 -8 0 -12 -28 -12 -94 0 -78 -21 -221 -35 -234 -2 -2 -9 16 -15 39 -26 102 -98 256 -162 353 -38 55 -88 131 -113 167 -55 83 -79 144 -106 267 -11 53 -24 100 -28 105 -4 4 -14 -1 -23 -10z"/>
<path d="M2857 943 c-4 -3 -7 -19 -7 -34 l0 -28 88 -3 c69 -2 1236 -1 1305 1 14 1 18 8 15 34 l-3 32 -696 3 c-382 1 -699 -1 -702 -5z"/>
</g>
</svg>